<svg width="123" height="153" viewBox="0 0 123 153" fill="none" xmlns="http://www.w3.org/2000/svg">
<g clip-path="url(#clip0_5_25)">
<path d="M66.1541 22.7008C69.847 22.7008 72.9588 25.5535 74.8896 28.6962C76.8204 31.8389 77.9921 35.4211 80.1478 38.4235C81.5631 40.3971 83.3815 42.0806 85.4623 43.334C81.2632 43.4369 77.0454 42.8663 73.015 41.6504C69.6502 40.6402 66.3509 39.1437 63.7921 36.7399C59.2087 32.4375 56.9217 22.6914 66.1634 22.6914L66.1541 22.7008Z" fill="#30A4D5"/>
<path d="M72.5464 32.6803C72.4714 32.6803 72.4058 32.6428 72.3683 32.568C70.8405 29.5376 67.9536 27.2367 64.6544 26.4136C64.5513 26.3855 64.4857 26.2827 64.5044 26.1704C64.5325 26.0675 64.645 26.0021 64.7481 26.0208C68.1599 26.8719 71.1404 29.2476 72.7245 32.381C72.7713 32.4838 72.7338 32.5961 72.6401 32.6522C72.612 32.6709 72.5745 32.6709 72.5464 32.6709V32.6803Z" fill="#26213F"/>
<path d="M148.505 57.1391C151.588 64.472 151.223 72.5813 150.089 80.2977C148.936 88.1638 146.293 94.1966 149.47 102.081C150.895 105.608 153.116 108.909 153.538 112.688C153.856 115.541 153.125 118.384 152.394 121.162C151.298 125.343 150.192 129.524 149.095 133.695C148.542 135.809 148.786 137.885 147.895 139.99C147.68 140.514 147.417 141.019 147.033 141.44C146.527 141.982 145.852 142.319 145.158 142.59C143.237 143.357 141.156 143.75 139.085 143.722C138.382 143.713 137.66 143.647 137.023 143.348C136.385 143.048 135.842 142.459 135.767 141.758C135.682 140.972 136.189 140.243 136.76 139.691C138.194 138.306 140.2 137.521 141.306 135.865C142.6 133.938 142.721 130.917 142.937 128.673C143.752 120.301 141.84 113.745 135.589 107.777C132.589 104.915 129.187 102.427 126.731 99.0883C123.048 94.0844 120.658 86.686 119.392 80.6718C117.977 73.9282 117.227 66.7449 118.586 59.9357C119.533 55.1749 121.857 50.5638 125.672 47.5708C129.243 44.7742 135.748 42.9129 140.031 45.2418C143.931 47.3557 146.874 53.3043 148.505 57.1578V57.1391Z" fill="#E59158"/>
<path d="M45.2899 88.1456C46.4616 92.9905 47.9331 97.742 49.8358 102.232C53.9318 111.921 56.5187 121.939 54.8878 132.499C54.691 133.789 54.4754 135.117 53.7537 136.212C52.2259 138.55 48.6736 139.457 48.1112 142.188C48.0175 142.665 48.0362 143.189 48.2893 143.601C48.7485 144.349 49.7514 144.499 50.6231 144.555C52.882 144.704 55.1877 144.77 57.3529 144.125C64.5232 142.011 63.2953 132.564 64.2514 126.634C65.2449 120.498 65.826 114.269 65.423 108.049C65.1887 104.486 64.645 100.885 65.1887 97.3491C66.051 91.8027 69.6595 86.9109 69.3783 81.2616C69.1253 76.1828 67.3069 70.786 63.3234 67.4282C59.0681 63.8459 40.8191 58.8232 41.9532 68.5973C42.703 75.0323 43.7153 81.6638 45.2712 88.1269L45.2899 88.1456Z" fill="#E59158"/>
<path d="M43.0498 72.9838C43.7153 74.9947 44.4276 76.9963 45.2243 78.9511C46.7615 82.7205 48.4767 85.966 51.3636 88.8188C54.2223 91.6341 57.4091 94.1688 61.0271 95.9459C61.1021 95.9834 61.1677 96.0208 61.2426 96.0488C65.0668 97.8821 69.2752 98.8267 73.5024 99.257C102.493 102.175 129.065 81.5046 158.168 80.1764C162.142 79.9987 166.538 80.0361 169.509 77.3798C172.612 74.6112 172.949 69.8972 172.471 65.7724C172.077 62.3585 171.253 58.9259 169.472 55.9796C166.322 50.7699 160.549 47.674 154.738 45.8407C140.566 41.3699 125.297 43.0161 110.45 43.6614C104.002 43.942 97.4783 44.0169 91.1423 42.7542C85.0686 41.5476 79.2855 39.1251 73.868 36.1227C65.7323 31.6145 58.2527 25.6471 53.0507 17.9401C52.4602 17.0609 51.7573 16.0694 50.6981 15.9291C50.1826 15.8637 49.6577 16.0227 49.161 16.191C40.4441 19.1466 32.7583 25.0392 27.547 32.5966C24.1446 37.5257 25.9442 39.0316 29.2154 43.306C32.3272 47.3747 34.9797 51.8174 37.1636 56.4473C39.6381 61.7131 41.2033 67.3999 43.0592 72.9651L43.0498 72.9838Z" fill="#FEAA62"/>
<path d="M11.2663 5.10704C10.329 6.58485 9.39167 8.06266 8.445 9.54982C7.20778 11.4953 5.97992 13.4314 4.7427 15.3769C4.17095 16.2748 3.58046 17.3785 4.02098 18.3418C4.38653 19.1556 5.33319 19.511 6.21425 19.6794C8.95114 20.2125 11.838 19.6326 14.3406 18.4073C16.8525 17.182 19.0083 15.3395 20.911 13.3005C21.7639 12.3932 22.5794 11.4205 23.0293 10.2607C24.1071 7.48276 22.0076 4.74226 19.7112 3.37669C16.187 1.28157 13.4314 1.68376 11.2569 5.10704H11.2663Z" fill="#E58849"/>
<path d="M34.3892 1.12316C32.2615 1.2541 30.1714 1.71241 28.0437 1.84336C25.7005 1.98366 23.3198 1.70306 21.0234 2.19878C17.4804 2.95639 14.4155 5.64077 13.2064 9.04534C12.6815 10.5325 12.4659 12.1693 11.5474 13.4507C10.5257 14.8724 8.81986 15.6113 7.19834 16.2847C5.52996 16.9769 3.86158 17.6597 2.1932 18.3518C1.6402 18.5763 1.05908 18.8288 0.67479 19.2871C0.262382 19.7828 0.131161 20.4563 0.0655504 21.0923C-0.337485 25.189 1.51835 29.4354 4.80825 31.9233C5.1363 32.1665 5.4831 32.4097 5.70805 32.7558C6.00798 33.2141 6.0361 33.794 6.14857 34.3365C6.60785 36.6186 8.53867 38.3864 10.6944 39.2656C12.8502 40.1448 15.2309 40.2851 17.5648 40.3693C25.4755 40.6873 33.8456 41.8845 41.0065 37.9187C44.9806 35.7114 48.3829 32.4658 50.7356 28.5749C53.0882 24.6839 55.2158 20.185 54.8878 15.5645C54.5597 11.0282 52.0571 6.76315 48.4111 4.07878C44.6713 1.31958 38.9069 0.86127 34.3986 1.14187L34.3892 1.12316Z" fill="#FEAA62"/>
<path d="M8.03259 24.6367C8.19193 24.8145 8.17319 25.095 7.98573 25.2447C7.80764 25.4037 7.52645 25.385 7.37649 25.1979C7.21715 25.0202 7.23589 24.7396 7.42335 24.59C7.60144 24.431 7.88262 24.4497 8.03259 24.6367Z" fill="#26213F"/>
<path d="M10.7414 25.2071C10.9007 25.3848 10.882 25.6654 10.6945 25.815C10.5164 25.974 10.2352 25.9553 10.0853 25.7682C9.92592 25.5905 9.94466 25.3099 10.1321 25.1603C10.3102 25.0013 10.5914 25.02 10.7414 25.2071Z" fill="#26213F"/>
<path d="M11.0507 23.1963C11.21 23.374 11.1913 23.6546 11.0038 23.8043C10.8257 23.9633 10.5445 23.9446 10.3946 23.7575C10.2352 23.5798 10.254 23.2992 10.4414 23.1495C10.6195 22.9905 10.9007 23.0092 11.0507 23.1963Z" fill="#26213F"/>
<path d="M7.8545 32.0351C7.8545 32.0351 7.80764 32.0351 7.78889 32.0257C6.59853 31.5768 5.55813 30.5573 4.86454 29.1543C4.24593 27.9103 3.96474 26.5541 3.68355 25.2447C3.6648 25.1324 3.73042 25.0295 3.83352 25.0108C3.94599 24.9828 4.04909 25.0576 4.06784 25.1605C4.33966 26.4512 4.62084 27.7887 5.22071 28.9766C5.86744 30.286 6.83285 31.2401 7.92948 31.661C8.03259 31.6984 8.08882 31.8106 8.04196 31.9135C8.01384 31.9977 7.92948 32.0444 7.8545 32.0444V32.0351Z" fill="#26213F"/>
<path d="M17.9398 33.5032C16.2245 33.4658 14.5093 33.1478 12.9346 32.8485L7.09529 31.7354C6.98281 31.7167 6.9172 31.6138 6.93595 31.5016C6.95469 31.3894 7.06717 31.3239 7.17027 31.3426L13.0096 32.4556C15.4091 32.9139 18.1366 33.4284 20.6766 32.8485C23.0199 32.3153 25.1194 30.8562 26.4222 28.8359C26.4785 28.7424 26.6097 28.7144 26.7034 28.7798C26.7972 28.8359 26.8253 28.9669 26.7597 29.0604C25.4006 31.1649 23.2167 32.6895 20.7704 33.2413C19.8425 33.4564 18.8864 33.5219 17.9398 33.5032Z" fill="#26213F"/>
<path d="M28.3906 30.3043C28.325 30.3043 28.2593 30.2669 28.2219 30.2107C27.7251 29.3877 26.7034 28.8919 25.738 29.0135C25.6349 29.0322 25.5318 28.9481 25.5131 28.8452C25.4943 28.7423 25.5787 28.6394 25.6818 28.6207C26.7878 28.4804 27.9782 29.051 28.5593 30.005C28.6155 30.0985 28.5874 30.2201 28.4937 30.2762C28.4562 30.2949 28.4187 30.3043 28.3906 30.3043Z" fill="#26213F"/>
<path d="M6.10176 32.6332C5.77371 32.6332 5.45503 32.549 5.17384 32.3807C5.08011 32.3246 5.04262 32.203 5.09886 32.1094C5.15509 32.0159 5.27694 31.9878 5.37067 32.0346C6.03615 32.4274 6.98281 32.231 7.44209 31.6137C7.5077 31.5202 7.62954 31.5108 7.72327 31.567C7.80763 31.6324 7.82638 31.754 7.76076 31.8475C7.37648 32.362 6.72974 32.6426 6.09239 32.6239L6.10176 32.6332Z" fill="#26213F"/>
<path d="M2.73688 19.1656C2.13702 19.2311 1.49029 19.3433 1.106 19.8016C0.890419 20.0635 0.787317 20.4002 0.749825 20.7463C0.599858 22.196 1.56527 23.4961 2.48381 24.6372C2.78375 25.0114 3.13055 25.4042 3.60857 25.4603C4.22718 25.5258 4.73332 24.9646 5.00513 24.4034C5.27695 23.8422 5.44566 23.1968 5.9143 22.7947C6.57041 22.2241 7.64829 22.2615 8.17318 21.5694C8.34189 21.3543 8.42625 21.0737 8.44499 20.8024C8.58559 18.1742 4.20843 19.0066 2.74626 19.175L2.73688 19.1656Z" fill="#26213F"/>
<path d="M5.57687 23.1409C5.57687 23.1409 5.53938 23.1409 5.51126 23.1316C5.40816 23.0942 5.35192 22.9819 5.38942 22.879C5.62374 22.215 6.04552 21.6257 6.59852 21.1768C6.68288 21.1113 6.8141 21.1206 6.87971 21.2048C6.94532 21.289 6.93595 21.4199 6.85159 21.4854C6.3642 21.8782 5.97991 22.4207 5.77371 23.01C5.74559 23.0942 5.66123 23.1409 5.57687 23.1409Z" fill="black"/>
<path d="M1.50903 23.159C1.42467 23.159 1.34969 23.1029 1.32157 23.0187C1.19972 22.6071 1.13411 22.1862 1.13411 21.756C1.13411 21.6438 1.22784 21.5596 1.33094 21.5596C1.43404 21.5596 1.52777 21.6531 1.52777 21.756C1.52777 22.1395 1.58401 22.5323 1.69648 22.8971C1.7246 23 1.66837 23.1122 1.56526 23.1496C1.54652 23.1496 1.52777 23.1496 1.49965 23.1496L1.50903 23.159Z" fill="black"/>
<path d="M28.4655 13.7778C28.4655 15.134 27.3595 16.2376 26.0005 16.2376C24.6414 16.2376 23.5354 15.134 23.5448 13.7778C23.5448 12.4215 24.6508 11.3179 26.0098 11.3272C27.3689 11.3272 28.4749 12.4309 28.4655 13.7871V13.7778Z" fill="#26213F"/>
<path d="M14.8561 13.5063C14.4999 14.6942 13.7876 15.5454 13.272 15.4144C12.7565 15.2835 12.6159 14.2078 12.9721 13.02C13.3283 11.8321 14.0406 10.981 14.5561 11.1119C15.0716 11.2522 15.2122 12.3185 14.8561 13.5063Z" fill="#26213F"/>
<path d="M40.4066 0.196983C40.1442 0.13151 39.8724 0.0847439 39.6006 0.0566843C39.235 0.00991816 38.8507 -0.0181415 38.4852 0.0473311C37.1355 0.290515 36.3388 1.82444 36.4513 3.19001C36.5637 4.55558 37.3417 5.76215 38.1384 6.88454C40.4348 10.1301 42.225 14.2736 43.0404 18.1739C43.1998 18.9315 43.406 19.8107 44.1089 20.1381C44.7744 20.4467 45.5524 20.0913 46.1897 19.7172C48.4486 18.3703 50.4638 16.6399 52.1322 14.6103C53.5006 12.9454 54.6535 11.0374 55.0846 8.93289C55.5158 6.81906 55.1409 4.48076 53.7537 2.82524C53.4631 2.47917 53.1351 2.17051 52.7227 1.98345C50.6606 1.06683 48.5517 2.67559 46.4615 2.32952C44.3995 1.98345 42.5343 0.702056 40.4066 0.206336V0.196983Z" fill="#E58849"/>
<path d="M31.718 10.2706C31.718 10.2706 31.643 10.2613 31.6055 10.2332C30.5651 9.49431 29.4872 8.7367 28.2781 8.30645C26.9565 7.83879 25.6256 7.86685 24.632 8.38127C24.5383 8.42804 24.4165 8.39063 24.3602 8.29709C24.3134 8.20356 24.3508 8.08197 24.4446 8.02585C25.5412 7.4553 26.9846 7.41789 28.4093 7.92297C29.6747 8.37192 30.7713 9.14824 31.8398 9.90585C31.9335 9.97132 31.9523 10.0929 31.8867 10.1864C31.8492 10.2426 31.7836 10.2706 31.718 10.2706Z" fill="#26213F"/>
<path d="M14.9029 9.40081C14.9029 9.40081 14.8748 9.40081 14.8654 9.40081C14.753 9.3821 14.6874 9.26986 14.7155 9.16697C14.7717 8.91444 14.678 8.62449 14.4812 8.45613C14.2843 8.28777 13.9938 8.23165 13.7407 8.32518C13.6376 8.3626 13.5251 8.30648 13.4876 8.20359C13.4501 8.10071 13.5064 7.98847 13.6095 7.95106C13.9938 7.81076 14.4343 7.89494 14.7436 8.15683C15.0529 8.42807 15.1935 8.85832 15.1091 9.25115C15.0904 9.34469 15.006 9.41016 14.9123 9.41016L14.9029 9.40081Z" fill="#26213F"/>
<path d="M33.8831 40.2005C33.7987 40.2005 33.7238 40.1444 33.6956 40.0696C33.6582 39.9667 33.7144 39.8545 33.8175 39.8171L38.4477 38.1896C39.6756 37.7594 40.9503 37.3104 42.1219 36.7211C45.0462 35.2433 47.4645 32.8209 48.9266 29.8839C48.9735 29.7811 49.0954 29.7436 49.1985 29.7904C49.3016 29.8372 49.339 29.9588 49.2922 30.0617C47.7925 33.064 45.3181 35.5614 42.3094 37.0766C41.1096 37.6845 39.8255 38.1335 38.5883 38.5731L33.9581 40.2005C33.9581 40.2005 33.9112 40.2099 33.8831 40.2099V40.2005Z" fill="#26213F"/>
<path d="M53.5662 91.0257C53.4819 91.0257 53.3975 90.9602 53.3788 90.876L52.1322 86.0778C52.1041 85.9749 52.1697 85.8627 52.2728 85.8346C52.3759 85.8066 52.4883 85.8721 52.5165 85.9749L53.7631 90.7731C53.7912 90.876 53.7256 90.9883 53.6225 91.0163C53.6037 91.0163 53.585 91.0163 53.5662 91.0163V91.0257Z" fill="#26213F"/>
<path d="M79.3792 99.5748C79.3792 99.5748 79.3136 99.5748 79.2855 99.5468C79.1918 99.4906 79.1543 99.369 79.2105 99.2755C81.1976 95.8148 82.9503 92.1858 84.4313 88.4912C84.4687 88.3884 84.5906 88.3416 84.6937 88.379C84.7968 88.4164 84.8437 88.538 84.8062 88.6409C83.3159 92.3541 81.5538 96.0019 79.5573 99.4813C79.5198 99.5468 79.4542 99.5842 79.3792 99.5842V99.5748Z" fill="#26213F"/>
<path d="M49.3953 144.087H49.3765C49.2641 144.068 49.1891 143.974 49.2078 143.862C49.3484 142.88 49.7515 141.954 50.3794 141.187C50.4544 141.103 50.5763 141.094 50.6606 141.159C50.745 141.225 50.7637 141.356 50.6887 141.44C50.1076 142.151 49.7327 143.011 49.6109 143.918C49.6015 144.021 49.5078 144.096 49.4047 144.087H49.3953Z" fill="#26213F"/>
<path d="M52.7227 144.797C52.7227 144.797 52.7133 144.797 52.7039 144.797C52.5915 144.788 52.5165 144.685 52.5258 144.573C52.6664 143.357 53.0882 142.16 53.7443 141.122C53.8006 141.028 53.9318 141 54.0161 141.056C54.1099 141.112 54.138 141.234 54.0817 141.327C53.4631 142.319 53.0601 143.451 52.9289 144.61C52.9195 144.713 52.8258 144.788 52.7227 144.788V144.797Z" fill="#26213F"/>
<path d="M55.3002 112.183C55.2252 112.183 55.1596 112.146 55.1221 112.071C55.0753 111.977 55.1128 111.856 55.2065 111.8C56.35 111.21 57.2404 110.182 57.6528 108.975C57.6903 108.872 57.8028 108.816 57.9059 108.853C58.009 108.891 58.0652 109.003 58.0277 109.106C57.5778 110.415 56.6218 111.528 55.3846 112.155C55.3565 112.174 55.319 112.174 55.2908 112.174L55.3002 112.183Z" fill="#26213F"/>
<path d="M49.7514 10.3356C49.6765 10.3356 49.6015 10.2888 49.564 10.2046C48.7204 7.96921 47.6425 5.80861 46.3584 3.78832C46.3022 3.69479 46.3303 3.57319 46.4241 3.51708C46.5178 3.46096 46.6396 3.48902 46.6959 3.58255C47.9893 5.62155 49.086 7.8102 49.9389 10.0737C49.9764 10.1766 49.9295 10.2888 49.8264 10.3356C49.7983 10.3356 49.7796 10.3449 49.7514 10.3449V10.3356Z" fill="#26213F"/>
<path d="M43.0498 72.9832C43.7153 74.9941 44.4276 76.9957 45.2243 78.9505C46.7615 82.7199 48.4767 85.9654 51.3636 88.8182C54.2223 91.6335 57.4091 94.1682 61.0271 95.9453C61.1021 95.9827 61.1677 96.0202 61.2427 96.0482C65.0668 97.8814 69.2752 98.8261 73.5024 99.2564C92.8856 101.211 111.191 92.6156 129.89 86.3022C134.923 84.5999 137.641 73.9465 143.528 63.7235C148.467 55.1372 157.381 46.6726 154.728 45.8401C140.556 41.3693 125.288 43.0154 110.441 43.6608C103.993 43.9414 97.469 44.0162 91.1329 42.7536C85.0592 41.547 79.2762 39.1245 73.8586 36.1221C70.3719 34.186 63.839 36.7394 57.8684 42.6787C49.8546 50.657 41.194 67.4086 43.0404 72.9738L43.0498 72.9832Z" fill="#8ED4AC"/>
<path d="M55.6564 96.8061C56.3125 98.4336 57.0061 100.033 57.7372 101.614C63.8108 114.867 69.0784 125.988 66.782 140.794C66.5852 142.085 66.3696 143.423 65.6479 144.508C64.1201 146.846 60.5678 147.753 60.0054 150.484C59.9117 150.961 59.9304 151.485 60.1835 151.897C60.6428 152.645 61.6457 152.794 62.5174 152.851C64.7762 153 67.082 153.066 69.2471 152.42C76.4174 150.307 75.1896 140.86 76.1456 134.93C77.1391 128.794 77.7202 122.565 77.3172 116.345C77.0829 112.781 76.5393 109.18 77.0829 105.645C77.9452 100.098 81.5538 95.2067 81.2726 89.5574C81.0195 84.4786 79.2012 79.0818 75.2177 75.724C70.2313 71.5244 63.0797 71.2718 56.5656 71.7675C53.5569 72.0014 52.6664 72.31 51.9728 75.0973C51.2792 77.8939 51.6542 81.2891 52.0478 84.1044C52.6571 88.463 53.988 92.6907 55.6283 96.7874L55.6564 96.8061Z" fill="#FEAA62"/>
<path d="M61.5145 152.804C61.5145 152.804 61.4957 152.804 61.477 152.804C61.3645 152.785 61.2989 152.682 61.3176 152.57C61.5613 151.335 62.1799 150.166 63.0704 149.278C63.1454 149.203 63.2766 149.203 63.3516 149.278C63.4265 149.353 63.4265 149.484 63.3516 149.558C62.5174 150.391 61.9362 151.485 61.7113 152.645C61.6925 152.738 61.6082 152.804 61.5145 152.804Z" fill="#26213F"/>
<path d="M64.57 153C64.57 153 64.5232 153 64.4951 152.981C64.392 152.935 64.3451 152.822 64.392 152.72C64.8981 151.56 65.5355 150.456 66.304 149.446C66.3696 149.362 66.4915 149.343 66.5852 149.409C66.6696 149.474 66.6883 149.596 66.6227 149.689C65.8729 150.671 65.2543 151.747 64.7575 152.879C64.72 152.953 64.645 153 64.57 153Z" fill="#26213F"/>
<path d="M67.9724 120.769C67.8974 120.769 67.8318 120.722 67.7943 120.657C67.7475 120.554 67.7943 120.442 67.8881 120.386C69.1534 119.768 70.2219 118.758 70.9155 117.533C70.9717 117.439 71.0936 117.402 71.1873 117.458C71.281 117.514 71.3185 117.636 71.2623 117.729C70.5312 119.02 69.3971 120.086 68.0568 120.741C68.0286 120.76 68.0005 120.76 67.963 120.76L67.9724 120.769Z" fill="#26213F"/>
<path d="M47.2301 45.6063C43.8934 49.9649 39.8349 53.9681 34.7641 56.11C34.6985 57.9713 37.0793 58.9627 37.6698 60.7211C37.8947 61.3665 37.8478 62.0773 37.9041 62.7601C38.0259 64.2473 38.6164 65.6409 39.2069 67.0065C41.6345 72.5997 44.1746 78.1461 46.8271 83.6365C47.2676 84.5531 48.0268 85.6194 49.0204 85.3949C49.4515 85.3014 49.7796 84.9646 50.0608 84.6373C51.0168 83.5336 51.7479 82.2616 52.4508 80.9895C61.0083 65.4725 65.048 47.5143 63.9702 29.8461C63.9139 28.9856 63.8389 28.0784 63.3328 27.3675C62.8079 26.638 61.9175 26.4322 61.1021 26.7408C60.624 25.2443 59.7242 21.7836 58.0371 23.4485C56.7999 24.6644 56.3594 28.7611 55.7314 30.3886C53.6318 35.8322 50.7543 40.9764 47.2114 45.6063H47.2301Z" fill="#30A4D5"/>
<path d="M48.9079 68.2881C48.9079 68.2881 48.8235 68.2693 48.786 68.2506C48.7017 68.1852 48.6829 68.0542 48.7485 67.97C56.9405 57.3541 58.9369 43.3898 60.7084 31.0716C60.7271 30.9593 60.8302 30.8939 60.9333 30.9032C61.0458 30.9219 61.1208 31.0155 61.1021 31.1277C59.3306 43.4927 57.3248 57.5131 49.0672 68.2132C49.0297 68.2693 48.9641 68.2881 48.9079 68.2881Z" fill="#26213F"/>
<path d="M44.1089 61.105C44.0527 61.105 43.9965 61.077 43.959 61.0302C43.8934 60.946 43.9027 60.8151 43.9871 60.7496C47.1645 58.1494 49.1703 54.2959 50.9418 50.8913C53.2475 46.4579 55.6376 41.8748 57.1842 37.0205C57.2217 36.9176 57.3248 36.8521 57.4372 36.8895C57.5403 36.927 57.5966 37.0298 57.5685 37.1421C56.0126 42.0245 53.6225 46.6262 51.298 51.0784C49.5077 54.511 47.4832 58.4113 44.2402 61.0583C44.2027 61.0863 44.1558 61.105 44.1089 61.105Z" fill="#26213F"/>
<path opacity="0.96" d="M17.9643 10.5561C18.0305 7.11641 15.9276 4.28668 13.2673 4.23571C10.6071 4.18474 8.39687 6.93183 8.33068 10.3715C8.2645 13.8112 10.3674 16.6409 13.0276 16.6919C15.6879 16.7429 17.8981 13.9958 17.9643 10.5561Z" fill="#26213F"/>
<path opacity="0.96" d="M26.5802 20.5985C30.1033 20.1986 32.5895 16.629 32.1331 12.6256C31.6767 8.62222 28.4507 5.70107 24.9275 6.10102C21.4043 6.50097 18.9181 10.0706 19.3745 14.074C19.8309 18.0773 23.057 20.9985 26.5802 20.5985Z" fill="#26213F"/>
<path d="M20.0018 15.7139C20.3486 15.7139 19.58 14.8347 17.7429 14.4512C16.7682 14.2548 15.634 14.7505 15.634 14.7505L15.709 12.2812L19.7019 12.8611L19.9924 15.7139H20.0018Z" fill="#26213F"/>
</g>
<defs>
<clipPath id="clip0_5_25">
<rect width="197" height="153" fill="white"/>
</clipPath>
</defs>
</svg>
