<svg width="54" height="54" viewBox="0 0 54 54" fill="none" xmlns="http://www.w3.org/2000/svg">
<circle cx="27.2186" cy="27.0002" r="26.7814" fill="#FEAA62"/>
<path d="M38.68 14.5811H16.9444C15.7091 14.5811 14.5244 15.0718 13.6509 15.9452C12.7775 16.8187 12.2868 18.0034 12.2868 19.2387V34.7641C12.2868 35.9994 12.7775 37.1841 13.6509 38.0576C14.5244 38.9311 15.7091 39.4218 16.9444 39.4218H38.68C39.9153 39.4218 41.1 38.9311 41.9735 38.0576C42.847 37.1841 43.3377 35.9994 43.3377 34.7641V19.2387C43.3377 18.0034 42.847 16.8187 41.9735 15.9452C41.1 15.0718 39.9153 14.5811 38.68 14.5811ZM37.6398 17.6861L27.8122 25.0607L17.9846 17.6861H37.6398ZM38.68 36.3167H16.9444C16.5326 36.3167 16.1377 36.1531 15.8466 35.862C15.5554 35.5708 15.3918 35.1759 15.3918 34.7641V19.6268L26.8807 28.2435C27.1494 28.445 27.4763 28.554 27.8122 28.554C28.1481 28.554 28.475 28.445 28.7437 28.2435L40.2326 19.6268V34.7641C40.2326 35.1759 40.069 35.5708 39.7778 35.862C39.4867 36.1531 39.0918 36.3167 38.68 36.3167Z" fill="white"/>
</svg>
