<?xml version="1.0" encoding="utf-8"?>
<!-- Generator: Adobe Illustrator 27.9.0, SVG Export Plug-In . SVG Version: 6.00 Build 0)  -->
<svg version="1.1" id="Camada_1" xmlns="http://www.w3.org/2000/svg" xmlns:xlink="http://www.w3.org/1999/xlink" x="0px" y="0px"
	 viewBox="0 0 50 50" style="enable-background:new 0 0 50 50;" xml:space="preserve">
<style type="text/css">
	.st0{fill:#D64567;}
	.st1{fill:#FFFFFF;}
</style>
<circle class="st0" cx="25" cy="25" r="24.7"/>
<g>
	<path class="st1" d="M38.6,10c-0.2-1.1-1.5-1.4-2.3-0.6c0,0-4,3.5-5.7,5c-1.7-0.6-6.1-1.8-11.3,0c-1.6-1.5-5.7-5-5.7-5
		C12.8,8.6,11.6,9,11.3,10c-1.5,7.7-3.2,18.2-1.8,22.7c4.4,14.4,26.5,14.6,31,0C41.7,28.6,40.5,19.5,38.6,10z M15.1,25.5
		c-0.6,0.9-2,0-1.3-0.9c2.9-4.2,7.7-2.9,9,1c0.3,1-1.2,1.5-1.6,0.5C20.3,23.4,17.3,22.3,15.1,25.5z M29,35.8c-1.9,1.5-3.6,0.5-4.5-1
		c-0.6,1-2.4,2.8-4.5,1c-0.8-0.7,0.2-1.9,1-1.3c1.8,1.5,2.7-2.1,2.8-2.2c-0.2-0.1-0.4-0.3-0.6-0.6l-0.6-1.1c-0.5-0.9,0.1-2,1.2-2
		l0.8,0.3l0.7-0.3c1.1,0,1.8,1.2,1.2,2.1l-0.6,1c-0.2,0.3-0.4,0.5-0.6,0.6c0,0.1,0.9,3.7,2.7,2.2C28.8,33.9,29.9,35.1,29,35.8z
		 M34.9,25.5c-2.4-3.4-5.4-1.7-6,0.5c-0.3,0.9-1.9,0.7-1.6-0.5c1.1-3.4,5.8-5.6,9-1C36.9,25.4,35.5,26.3,34.9,25.5z"/>
</g>
</svg>
