<svg width="14" height="12" viewBox="0 0 14 12" fill="none" xmlns="http://www.w3.org/2000/svg">
<path d="M10.4043 0.192383C10.8828 0.192383 11.3317 0.283529 11.751 0.46582C12.1748 0.648112 12.5439 0.896484 12.8584 1.21094C13.1729 1.52539 13.4212 1.89453 13.6035 2.31836C13.7858 2.73763 13.877 3.18652 13.877 3.66504C13.877 4.12988 13.7881 4.57422 13.6104 4.99805C13.4372 5.41732 13.1865 5.79102 12.8584 6.11914L7 11.9844L1.1416 6.11914C0.813477 5.79102 0.560547 5.41732 0.382812 4.99805C0.209635 4.57422 0.123047 4.12988 0.123047 3.66504C0.123047 3.18652 0.214193 2.73763 0.396484 2.31836C0.578776 1.89453 0.827148 1.52539 1.1416 1.21094C1.45605 0.896484 1.82292 0.648112 2.24219 0.46582C2.66602 0.283529 3.11719 0.192383 3.5957 0.192383C3.9694 0.192383 4.30208 0.240234 4.59375 0.335938C4.88997 0.427083 5.16113 0.552409 5.40723 0.711914C5.65788 0.871419 5.89486 1.05827 6.11816 1.27246C6.34147 1.4821 6.56934 1.70768 6.80176 1.94922L7 2.1543L7.21875 1.92871C7.45117 1.69173 7.67676 1.46842 7.89551 1.25879C8.11882 1.0446 8.35352 0.860026 8.59961 0.705078C8.8457 0.545573 9.11458 0.420247 9.40625 0.329102C9.69792 0.237956 10.0306 0.192383 10.4043 0.192383Z" fill="white"/>
</svg>
