<svg width="54" height="54" viewBox="0 0 54 54" fill="none" xmlns="http://www.w3.org/2000/svg">
<circle cx="26.7814" cy="27.0002" r="26.7814" fill="#FEAA62"/>
<path d="M27.3636 15.0679C31.25 15.0679 31.7103 15.0827 33.2451 15.1527C34.6642 15.2175 35.4349 15.4546 35.9478 15.6539C36.6271 15.9179 37.1121 16.2334 37.6214 16.7427C38.1307 17.252 38.4461 17.7369 38.7101 18.4162C38.9094 18.9292 39.1465 19.6999 39.2113 21.1189C39.2813 22.6537 39.2961 23.1141 39.2961 27.0005C39.2961 30.8869 39.2813 31.3472 39.2113 32.8819C39.1465 34.301 38.9094 35.0717 38.7101 35.5847C38.4461 36.264 38.1307 36.7489 37.6214 37.2582C37.1121 37.7675 36.6271 38.083 35.9478 38.347C35.4349 38.5463 34.6642 38.7834 33.2451 38.8482C31.7105 38.9182 31.2502 38.933 27.3636 38.933C23.4769 38.933 23.0166 38.9182 21.4821 38.8482C20.063 38.7834 19.2923 38.5463 18.7794 38.347C18.1 38.083 17.6151 37.7675 17.1058 37.2582C16.5965 36.7489 16.281 36.264 16.0171 35.5847C15.8177 35.0717 15.5806 34.301 15.5159 32.882C15.4458 31.3472 15.431 30.8869 15.431 27.0005C15.431 23.1141 15.4458 22.6537 15.5159 21.119C15.5806 19.6999 15.8177 18.9292 16.0171 18.4162C16.281 17.7369 16.5965 17.252 17.1058 16.7427C17.6151 16.2334 18.1 15.9179 18.7794 15.6539C19.2923 15.4546 20.063 15.2175 21.482 15.1527C23.0169 15.0827 23.4772 15.0679 27.3636 15.0679ZM27.3636 12.4453C23.4106 12.4453 22.915 12.4621 21.3626 12.5329C19.8133 12.6036 18.7553 12.8496 17.8294 13.2095C16.8723 13.5814 16.0606 14.0791 15.2514 14.8883C14.4422 15.6974 13.9446 16.5091 13.5726 17.4663C13.2128 18.3921 12.9667 19.4501 12.896 20.9994C12.8252 22.5518 12.8085 23.0475 12.8085 27.0005C12.8085 30.9534 12.8252 31.4491 12.896 33.0015C12.9667 34.5508 13.2128 35.6088 13.5726 36.5346C13.9446 37.4917 14.4422 38.3035 15.2514 39.1126C16.0606 39.9218 16.8723 40.4195 17.8294 40.7914C18.7553 41.1513 19.8133 41.3973 21.3626 41.468C22.915 41.5388 23.4106 41.5555 27.3636 41.5555C31.3165 41.5555 31.8122 41.5388 33.3646 41.468C34.9139 41.3973 35.9719 41.1513 36.8978 40.7914C37.8549 40.4195 38.6666 39.9218 39.4758 39.1126C40.2849 38.3035 40.7826 37.4918 41.1546 36.5346C41.5144 35.6088 41.7604 34.5508 41.8311 33.0015C41.902 31.4491 41.9187 30.9534 41.9187 27.0005C41.9187 23.0475 41.902 22.5518 41.8311 20.9994C41.7604 19.4501 41.5144 18.3921 41.1546 17.4663C40.7826 16.5091 40.2849 15.6974 39.4758 14.8883C38.6666 14.0791 37.8549 13.5814 36.8978 13.2095C35.9719 12.8496 34.9139 12.6036 33.3646 12.5329C31.8122 12.4621 31.3165 12.4453 27.3636 12.4453ZM27.3636 19.5262C23.2357 19.5262 19.8893 22.8725 19.8893 27.0005C19.8893 31.1284 23.2357 34.4747 27.3636 34.4747C31.4915 34.4747 34.8379 31.1284 34.8379 27.0005C34.8379 22.8725 31.4915 19.5262 27.3636 19.5262ZM27.3636 31.8522C24.6841 31.8522 22.5118 29.68 22.5118 27.0005C22.5118 24.3209 24.6841 22.1487 27.3636 22.1487C30.0431 22.1487 32.2153 24.3209 32.2153 27.0005C32.2153 29.68 30.0431 31.8522 27.3636 31.8522ZM36.8797 19.2309C36.8797 20.1955 36.0978 20.9775 35.1331 20.9775C34.1685 20.9775 33.3865 20.1955 33.3865 19.2309C33.3865 18.2662 34.1685 17.4843 35.1331 17.4843C36.0978 17.4843 36.8797 18.2662 36.8797 19.2309Z" fill="white"/>
</svg>
