<?xml version="1.0" encoding="UTF-8"?>
<svg id="Camada_1" data-name="Camada 1" xmlns="http://www.w3.org/2000/svg" viewBox="0 0 861.2 250.71">
  <defs>
    <style>
      .cls-1 {
        fill: #fff;
      }
    </style>
  </defs>
  <path class="cls-1" d="m197.9,3.08s-29.25,25.31-41.14,36.3c-12.49-4.25-44.52-12.85-82.16,0C62.71,28.4,33.45,3.08,33.45,3.08,27.52-2.61,18.41-.05,16.85,7.75,5.71,63.24-6.12,139.75,3.61,171.97c31.54,104.52,192.21,105.41,224.21.09,9.09-29.91.37-96.12-13.31-164.32-1.56-7.8-10.67-10.35-16.6-4.67ZM44.01,119.36c-4.44,6.4-14.24-.31-9.76-6.77,21.35-30.77,55.93-20.99,64.86,7.03,2.4,7.53-8.94,11.04-11.31,3.61-5.88-18.43-27.93-26.74-43.79-3.87Zm100.91,75.09c-13.47,11.01-25.97,3.51-32.93-7.51-4.55,7.19-17.11,20.44-32.93,7.51-6.02-4.93,1.51-14.1,7.52-9.19,13.26,10.85,19.74-15.45,20-16.02-1.71-.96-3.22-2.39-4.32-4.29l-4.6-7.96c-3.75-6.49.94-14.6,8.43-14.6l5.9,2.31,5.27-2.31c7.98,0,12.97,8.64,8.98,15.55l-4.05,7.02c-1.18,2.04-2.83,3.52-4.69,4.47.17.43,6.71,26.63,19.91,15.84,6.05-4.94,13.56,4.25,7.52,9.19Zm42.49-75.09c-17.24-24.88-38.95-12.04-43.79,3.87-1.89,6.23-14.1,5.13-11.31-3.61,7.91-24.82,41.71-40.4,64.86-7.03,4.49,6.48-5.38,13.08-9.76,6.77Z"/>
  <path class="cls-1" d="m486.23,104.22c1.26-4.15,1.89-8.58,1.89-13.31s-.63-9.09-1.89-13.27c-1.26-4.17-3.01-8.02-5.24-11.53-2.23-3.52-4.92-6.68-8.07-9.49-3.15-2.81-6.6-5.18-10.35-7.13-3.75-1.94-7.77-3.44-12.05-4.49-4.28-1.05-8.67-1.57-13.19-1.57s-8.9.53-13.15,1.57c-4.25,1.05-8.26,2.55-12.01,4.49-3.75,1.94-7.2,4.32-10.35,7.13-3.15,2.81-5.84,5.97-8.07,9.49-2.23,3.52-3.98,7.36-5.24,11.53-1.26,4.17-1.89,8.6-1.89,13.27s.63,9.09,1.89,13.27c1.26,4.17,3,8.02,5.24,11.54,2.23,3.52,4.92,6.68,8.07,9.49,3.15,2.81,6.6,5.18,10.35,7.13,3.75,1.94,7.76,3.44,12.01,4.49,4.25,1.05,8.63,1.57,13.15,1.57s8.91-.53,13.19-1.57c4.28-1.05,8.29-2.55,12.05-4.49,3.75-1.94,7.2-4.32,10.35-7.13,3.15-2.81,5.84-5.97,8.07-9.49,2.23-3.52,3.98-7.35,5.24-11.5Zm-25.63-5.35c-.29,2.78-.79,5.54-1.5,8.27-.71,2.73-1.64,5.33-2.79,7.79-1.16,2.47-2.61,4.65-4.37,6.54-1.76,1.89-3.85,3.4-6.26,4.53-2.41,1.13-5.2,1.69-8.35,1.69s-5.75-.58-8.11-1.73c-2.36-1.15-4.42-2.69-6.18-4.61-1.76-1.92-3.23-4.12-4.41-6.61-1.18-2.49-2.14-5.1-2.87-7.83-.74-2.73-1.26-5.47-1.57-8.23-.32-2.76-.47-5.34-.47-7.76s.16-5,.47-7.76c.31-2.76.84-5.48,1.57-8.19.73-2.7,1.69-5.31,2.87-7.83,1.18-2.52,2.65-4.74,4.41-6.65,1.76-1.92,3.82-3.45,6.18-4.61,2.36-1.15,5.06-1.73,8.11-1.73,3.2,0,6.01.56,8.43,1.69,2.41,1.13,4.49,2.62,6.22,4.49,1.73,1.86,3.19,4.04,4.37,6.54,1.18,2.49,2.11,5.09,2.79,7.79.68,2.7,1.17,5.46,1.46,8.27.29,2.81.43,5.47.43,7.99s-.15,5.17-.43,7.95Z"/>
  <path class="cls-1" d="m634.09,54.85c-2.78-3.57-6.37-6.36-10.75-8.39-4.38-2.02-9.67-3.03-15.87-3.03-3.36,0-6.43.43-9.21,1.3-2.78.87-5.31,2.11-7.6,3.74-2.28,1.63-4.36,3.6-6.22,5.91-1.63,2.03-3.14,4.27-4.51,6.74-.23.41-.84.4-1.02-.04-2.63-6.05-6.16-10.47-10.57-13.24-4.67-2.94-10.55-4.41-17.64-4.41-7.87,0-14.19,2.06-18.94,6.18-4.45,3.86-7.78,9.12-9.99,15.81-.16.49-.84.53-1.06.06l-6.93-15.02c-1.35-2.93-4.29-4.81-7.52-4.81-2.73,0-4.94,2.21-4.94,4.94v73.87c0,6.7,5.44,12.14,12.14,12.14h.35c7.84,0,14.2-6.36,14.2-14.2v-31.39c0-1.52.03-3.45.08-5.79.05-2.34.22-4.8.51-7.4.29-2.6.73-5.2,1.34-7.79.6-2.6,1.44-4.93,2.52-7.01,1.08-2.07,2.41-3.77,4.02-5.08,1.6-1.31,3.58-1.97,5.94-1.97,2.78,0,5.09.7,6.93,2.09,1.84,1.39,3.29,3.19,4.37,5.39,1.07,2.2,1.86,4.71,2.36,7.52.5,2.81.84,5.63,1.02,8.46.18,2.83.25,5.55.2,8.15-.05,2.6-.08,4.82-.08,6.65v27.84c0,8.02,6.5,14.52,14.52,14.52,6.64,0,12.02-5.38,12.02-12.02v-33.57c0-1.63.07-3.62.2-5.98.13-2.36.38-4.84.75-7.44.37-2.6.91-5.18,1.61-7.76.71-2.57,1.67-4.88,2.87-6.93,1.21-2.05,2.66-3.71,4.37-5,1.71-1.29,3.77-1.93,6.18-1.93s4.58.46,6.34,1.38c1.76.92,3.23,2.15,4.41,3.7,1.18,1.55,2.11,3.31,2.79,5.28.68,1.97,1.19,4.03,1.54,6.18.34,2.15.56,4.31.67,6.46.1,2.15.16,4.15.16,5.98,0,3.26-.13,6.75-.39,10.47-.26,3.73-.67,7.57-1.22,11.54-.55,3.96-1.22,7.94-2.01,11.93-.79,3.99-1.71,7.87-2.76,11.65-1.05,3.78-2.2,7.37-3.46,10.79-.52,1.42-1.07,2.78-1.64,4.08-1.3,2.97-.13,6.44,2.72,7.98,2.9,1.58,6.52,1,8.76-1.43,3.01-3.25,5.82-6.88,8.43-10.88,3.73-5.72,6.92-11.8,9.57-18.23,2.65-6.43,4.71-13.03,6.18-19.8,1.47-6.77,2.2-13.28,2.2-19.53,0-5.72-.63-11.04-1.89-15.94-1.26-4.91-3.28-9.15-6.06-12.72Z"/>
  <path class="cls-1" d="m740.11,56.38c-2.18-2.39-4.74-4.4-7.68-6.02-2.94-1.63-6.06-2.95-9.37-3.98-3.31-1.02-6.72-1.77-10.24-2.24-3.52-.47-6.96-.71-10.32-.71-6.93,0-13.33,1.17-19.21,3.5-5.88,2.34-10.94,5.6-15.2,9.8-4.25,4.2-7.59,9.21-10,15.04-2.42,5.83-3.62,12.2-3.62,19.13s1.21,13.31,3.62,19.13c2.41,5.83,5.75,10.84,10,15.04,4.25,4.2,9.32,7.47,15.2,9.8,5.88,2.33,12.28,3.5,19.21,3.5,4.2,0,8.44-.47,12.72-1.42,4.28-.94,8.32-2.4,12.13-4.37,3.81-1.97,7.22-4.46,10.24-7.48,1.41-1.41,2.68-2.94,3.8-4.59,2.04-2.99.74-7.11-2.66-8.37-2.92-1.08-6.22.02-7.84,2.67-.49.8-1.01,1.56-1.57,2.3-1.6,2.1-3.45,3.91-5.55,5.43-2.1,1.52-4.41,2.7-6.93,3.54-2.52.84-5.17,1.26-7.95,1.26-4.2,0-7.83-.68-10.91-2.05-3.07-1.36-5.66-3.21-7.76-5.55-2.1-2.33-3.78-5.06-5.04-8.19-1.26-3.12-2.18-6.42-2.76-9.88,3.73,1.21,7.51,2.09,11.34,2.64,3.83.55,7.72.83,11.65.83,3.1,0,6.29-.21,9.57-.63,3.28-.42,6.47-1.11,9.57-2.09,3.1-.97,6.01-2.22,8.74-3.74,2.73-1.52,5.13-3.39,7.2-5.59,2.07-2.2,3.71-4.76,4.92-7.68,1.21-2.91,1.81-6.23,1.81-9.96,0-4.04-.64-7.64-1.93-10.79-1.29-3.15-3.02-5.92-5.2-8.31Zm-16.34,28.94c-1.26,2.57-2.98,4.63-5.16,6.18-2.18,1.55-4.75,2.65-7.72,3.31-2.97.66-6.18.98-9.65.98s-6.59-.21-9.84-.63c-3.26-.42-6.51-1-9.76-1.73-.05-.42-.08-.84-.08-1.26v-1.26c0-2.41.18-4.99.55-7.72.37-2.73.97-5.43,1.81-8.11.84-2.68,1.9-5.25,3.19-7.72,1.29-2.47,2.83-4.63,4.65-6.5,1.81-1.86,3.91-3.35,6.3-4.45,2.39-1.1,5.08-1.65,8.07-1.65,3.2,0,6.01.51,8.42,1.54,2.41,1.02,4.45,2.45,6.1,4.29,1.65,1.84,2.9,4.04,3.74,6.61.84,2.57,1.26,5.41,1.26,8.5,0,3.83-.63,7.03-1.89,9.61Z"/>
  <path class="cls-1" d="m347.32,126.1c10.66,10.48,28.81,10.01,30.71,7.31,1.86-2.65,1.38-6.28-1.11-8.36-1.09-.91-2.18-1.89-3.28-2.93-2.64-2.5-5.27-5.21-7.89-8.13-2.62-2.92-5.17-5.99-7.64-9.22-2.48-3.22-4.84-6.49-7.1-9.8-.74-1.09-1.46-2.17-2.16-3.25,3.41-.6,6.62-1.41,9.92-3.06,4.25-2.13,8.02-4.8,11.3-8.03,3.28-3.23,5.91-6.9,7.87-11.02,1.97-4.12,2.95-8.52,2.95-13.19,0-5.98-1.12-11.08-3.35-15.28-2.23-4.2-5.22-7.62-8.98-10.28-3.75-2.65-8.07-4.59-12.95-5.83-4.88-1.23-9.95-1.85-15.2-1.85h-46.35c-2.67,0-4.83,2.16-4.83,4.83v97.14c0,6.3,5.11,11.42,11.42,11.42h.71c8.04,0,14.56-6.52,14.56-14.56v-27.55c0-.14.11-.25.25-.25h3.75c1.86,2.93,3.94,5.84,6.24,8.72,4.32,5.41,16.28,18.38,21.15,23.16Zm-31.39-91.8h11.02c7.4,0,12.95,1.79,16.65,5.35,3.7,3.57,5.55,9.16,5.55,16.77,0,3.57-.42,6.98-1.26,10.24-.84,3.26-2.15,6.13-3.94,8.62-1.79,2.49-4.08,4.49-6.89,5.98-2.81,1.5-6.18,2.24-10.12,2.24h-11.02v-49.21Z"/>
  <path class="cls-1" d="m859.31,77.64c-1.26-4.17-3.01-8.02-5.24-11.53-2.23-3.52-4.92-6.68-8.07-9.49-3.15-2.81-6.6-5.18-10.35-7.13-3.75-1.94-7.77-3.44-12.05-4.49-4.28-1.05-8.67-1.57-13.19-1.57s-8.9.53-13.15,1.57c-4.25,1.05-8.26,2.55-12.01,4.49-3.75,1.94-7.2,4.32-10.35,7.13-3.15,2.81-5.84,5.97-8.07,9.49-2.23,3.52-3.98,7.36-5.24,11.53-1.26,4.17-1.89,8.6-1.89,13.27s.63,9.09,1.89,13.27c1.26,4.17,3,8.02,5.24,11.54,2.23,3.52,4.92,6.68,8.07,9.49,3.15,2.81,6.6,5.18,10.35,7.13,3.75,1.94,7.76,3.44,12.01,4.49,4.25,1.05,8.63,1.57,13.15,1.57s8.91-.53,13.19-1.57c4.28-1.05,8.29-2.55,12.05-4.49,3.75-1.94,7.2-4.32,10.35-7.13,3.15-2.81,5.84-5.97,8.07-9.49,2.23-3.52,3.98-7.35,5.24-11.5,1.26-4.15,1.89-8.58,1.89-13.31s-.63-9.09-1.89-13.27Zm-25.63,21.22c-.29,2.78-.79,5.54-1.5,8.27-.71,2.73-1.64,5.33-2.79,7.79-1.16,2.47-2.61,4.65-4.37,6.54-1.76,1.89-3.85,3.4-6.26,4.53-2.42,1.13-5.2,1.69-8.35,1.69s-5.75-.58-8.11-1.73c-2.36-1.15-4.42-2.69-6.18-4.61-1.76-1.92-3.23-4.12-4.41-6.61-1.18-2.49-2.14-5.1-2.87-7.83-.74-2.73-1.26-5.47-1.57-8.23-.31-2.76-.47-5.34-.47-7.76s.16-5,.47-7.76c.31-2.76.84-5.48,1.57-8.19.73-2.7,1.69-5.31,2.87-7.83,1.18-2.52,2.65-4.74,4.41-6.65,1.76-1.92,3.82-3.45,6.18-4.61,2.36-1.15,5.06-1.73,8.11-1.73,3.2,0,6.01.56,8.43,1.69,2.41,1.13,4.49,2.62,6.22,4.49,1.73,1.86,3.19,4.04,4.37,6.54,1.18,2.49,2.11,5.09,2.79,7.79.68,2.7,1.17,5.46,1.46,8.27.29,2.81.43,5.47.43,7.99s-.15,5.17-.43,7.95Z"/>
  <path class="cls-1" d="m318.21,195.55c-1.2-1.04-2.5-1.8-3.9-2.3-1.4-.49-2.79-.74-4.17-.74h-10.12c-1.22,0-2.09.18-2.62.54-.53.36-.86.83-.99,1.41-.13.58-.2,1.18-.2,1.8v26.95c0,.62.07,1.23.2,1.83.13.59.45,1.07.96,1.43.51.36,1.37.54,2.59.54s2.09-.18,2.62-.54c.53-.36.86-.83.99-1.41.13-.58.2-1.18.2-1.8v-6.47h6.32c1.38,0,2.78-.25,4.2-.77,1.42-.51,2.72-1.27,3.92-2.27,1.2-1,2.17-2.26,2.91-3.78.74-1.51,1.11-3.27,1.11-5.28s-.37-3.82-1.11-5.33c-.74-1.51-1.71-2.79-2.91-3.83Zm-4.15,11.77c-.48.69-1.07,1.19-1.78,1.51-.71.31-1.42.47-2.15.47h-6.37v-9.28h6.32c.92,0,1.74.2,2.44.59.71.39,1.26.94,1.65,1.63.39.69.59,1.5.59,2.42,0,1.09-.24,1.97-.72,2.67Z"/>
  <path class="cls-1" d="m350.87,200.01c.66,0,1.28-.06,1.85-.17.58-.12,1.04-.44,1.41-.96s.54-1.38.54-2.57c0-1.25-.18-2.14-.54-2.67-.36-.53-.82-.85-1.38-.96-.56-.12-1.17-.17-1.83-.17h-18.66c-1.45,0-2.45.26-3.01.79-.56.53-.84,1.51-.84,2.96v27c0,.63.06,1.23.17,1.83.12.59.44,1.06.96,1.41.53.35,1.38.52,2.57.52h18.76c.66,0,1.28-.06,1.85-.17.58-.12,1.04-.44,1.41-.96.36-.53.54-1.38.54-2.57,0-1.25-.18-2.13-.54-2.64-.36-.51-.82-.83-1.38-.96-.56-.13-1.17-.2-1.83-.2h-15.01v-6.62h10.07c.69,0,1.3-.05,1.83-.15.53-.1.94-.38,1.23-.84.3-.46.44-1.2.44-2.22,0-1.09-.15-1.86-.44-2.32-.3-.46-.7-.74-1.21-.84-.51-.1-1.09-.15-1.75-.15h-10.17v-6.37h14.96Z"/>
  <path class="cls-1" d="m387.74,192.61c-.46-.1-.97-.15-1.53-.15h-23.45c-.53,0-1.04.05-1.53.15-.49.1-.89.37-1.18.81-.3.44-.44,1.19-.44,2.25s.15,1.8.44,2.25c.3.44.69.72,1.18.84.49.12,1,.17,1.53.17h8.05v24.39c0,.62.05,1.23.15,1.8.1.58.41,1.04.94,1.38.53.35,1.38.52,2.57.52s2.08-.17,2.59-.52c.51-.35.82-.8.94-1.36s.17-1.15.17-1.78v-24.44h7.95c.56,0,1.09-.05,1.58-.15.49-.1.9-.38,1.21-.84.31-.46.47-1.2.47-2.22,0-1.09-.16-1.85-.47-2.29-.31-.44-.7-.72-1.16-.81Z"/>
  <path class="cls-1" d="m432.62,220.65c-.49-.1-1.02-.15-1.58-.15h-13.53v-24.24c0-.66-.06-1.27-.17-1.83-.12-.56-.43-1.02-.94-1.38-.51-.36-1.39-.54-2.64-.54s-2.09.18-2.62.54-.85.82-.96,1.38c-.12.56-.17,1.17-.17,1.83v27c0,.63.07,1.23.2,1.83.13.59.46,1.06.99,1.41.53.35,1.38.52,2.57.52h17.28c.56,0,1.08-.05,1.56-.15.48-.1.88-.39,1.21-.86.33-.48.49-1.23.49-2.25s-.16-1.81-.47-2.27c-.31-.46-.72-.74-1.21-.84Z"/>
  <path class="cls-1" d="m467.52,197.3c-1.55-1.61-3.37-2.87-5.46-3.78-2.09-.91-4.32-1.36-6.69-1.36s-4.53.46-6.57,1.38c-2.04.92-3.83,2.21-5.36,3.85-1.53,1.65-2.73,3.55-3.6,5.7-.87,2.16-1.31,4.47-1.31,6.94s.45,4.71,1.36,6.81c.91,2.11,2.14,3.96,3.7,5.55,1.56,1.6,3.39,2.85,5.48,3.75,2.09.91,4.32,1.36,6.69,1.36s4.47-.46,6.49-1.38c2.02-.92,3.81-2.2,5.36-3.83,1.55-1.63,2.76-3.5,3.63-5.63.87-2.12,1.31-4.38,1.31-6.79s-.45-4.82-1.36-6.96c-.91-2.14-2.13-4.01-3.68-5.63Zm-3.23,16.56c-.48,1.23-1.15,2.3-2.02,3.21-.87.91-1.88,1.62-3.04,2.15-1.15.53-2.39.79-3.7.79s-2.54-.26-3.65-.79c-1.12-.53-2.12-1.25-2.99-2.17s-1.56-2-2.07-3.23c-.51-1.23-.76-2.54-.76-3.92s.25-2.74.76-3.97c.51-1.23,1.2-2.32,2.07-3.26.87-.94,1.88-1.67,3.01-2.2,1.14-.53,2.34-.79,3.63-.79s2.54.26,3.68.79c1.13.53,2.14,1.26,3.01,2.2.87.94,1.56,2.02,2.05,3.26.49,1.23.74,2.54.74,3.92s-.24,2.79-.72,4.02Z"/>
  <path class="cls-1" d="m507.6,192.9c-.86-.49-1.6-.74-2.22-.74s-1.16.21-1.6.64-.83,1.07-1.16,1.92l-8.79,21.72-8.74-21.87c-.33-.82-.72-1.44-1.16-1.85-.44-.41-.97-.61-1.58-.59-.61.02-1.34.27-2.2.76-1.25.59-2.02,1.23-2.29,1.9-.28.67-.16,1.62.37,2.84l11.95,27.3c.3.69.77,1.21,1.41,1.55s1.42.52,2.34.52c.82,0,1.56-.19,2.2-.57s1.11-.88,1.41-1.51l11.95-27.15c.53-1.19.7-2.13.52-2.84-.18-.71-.98-1.39-2.39-2.05Z"/>
  <path class="cls-1" d="m539.25,200.01c.66,0,1.28-.06,1.85-.17.58-.12,1.04-.44,1.41-.96s.54-1.38.54-2.57c0-1.25-.18-2.14-.54-2.67-.36-.53-.82-.85-1.38-.96-.56-.12-1.17-.17-1.83-.17h-18.66c-1.45,0-2.45.26-3.01.79-.56.53-.84,1.51-.84,2.96v27c0,.63.06,1.23.17,1.83.12.59.44,1.06.96,1.41.53.35,1.38.52,2.57.52h18.76c.66,0,1.28-.06,1.85-.17.58-.12,1.04-.44,1.41-.96.36-.53.54-1.38.54-2.57,0-1.25-.18-2.13-.54-2.64-.36-.51-.82-.83-1.38-.96-.56-.13-1.17-.2-1.83-.2h-15.01v-6.62h10.07c.69,0,1.3-.05,1.83-.15.53-.1.94-.38,1.23-.84.3-.46.44-1.2.44-2.22,0-1.09-.15-1.86-.44-2.32-.3-.46-.7-.74-1.21-.84-.51-.1-1.09-.15-1.75-.15h-10.17v-6.37h14.96Z"/>
  <path class="cls-1" d="m574.74,220.75l-4.31-6.17c.92-.67,1.72-1.44,2.38-2.32.82-1.09,1.44-2.27,1.85-3.55.41-1.28.62-2.62.62-4,0-2.07-.36-3.87-1.09-5.38s-1.68-2.78-2.86-3.8c-1.18-1.02-2.49-1.78-3.9-2.27-1.42-.49-2.8-.74-4.15-.74h-10.27c-1.22,0-2.09.18-2.62.54-.53.36-.85.82-.96,1.38-.12.56-.17,1.15-.17,1.78v27c0,.62.06,1.23.17,1.83.12.59.44,1.07.96,1.43.53.36,1.38.54,2.57.54s2.09-.18,2.62-.54c.53-.36.86-.83.99-1.41.13-.58.2-1.18.2-1.8v-6.57h5.95l5.9,8.44c.79,1.09,1.55,1.73,2.27,1.93.72.2,1.7-.15,2.91-1.04.86-.62,1.44-1.18,1.75-1.68.31-.49.39-1.02.25-1.58-.15-.56-.5-1.23-1.06-2.02Zm-17.97-20.73h6.42c.92,0,1.73.19,2.42.57.69.38,1.23.91,1.6,1.6.38.69.57,1.51.57,2.47,0,.82-.13,1.53-.4,2.12s-.59,1.07-.99,1.43c-.39.36-.84.63-1.33.81-.49.18-.97.27-1.43.27h-6.86v-9.28Z"/>
  <path class="cls-1" d="m602.14,209.69c-.72-.72-1.55-1.32-2.47-1.8-.92-.48-1.88-.88-2.86-1.21-1.09-.33-2.15-.62-3.18-.86-1.04-.25-1.97-.51-2.81-.79-.84-.28-1.51-.65-2.02-1.11-.51-.46-.76-1.07-.76-1.83,0-.46.1-.88.3-1.26.2-.38.46-.7.79-.96.33-.26.72-.47,1.18-.62s.95-.22,1.48-.22c.89,0,1.6.09,2.15.27.54.18,1.01.42,1.41.72.4.3.79.63,1.18.99,1.02.69,1.93.97,2.74.84.81-.13,1.62-.77,2.44-1.93.79-1.09,1.14-1.93,1.04-2.54-.1-.61-.61-1.34-1.53-2.2-.17-.2-.47-.47-.91-.81s-1.05-.7-1.8-1.06c-.76-.36-1.69-.67-2.79-.94-1.1-.26-2.39-.39-3.88-.39-2.21,0-4.16.44-5.85,1.31-1.7.87-3.02,2.07-3.97,3.58-.95,1.51-1.43,3.24-1.43,5.18,0,1.15.12,2.17.37,3.06.25.89.59,1.68,1.04,2.37.44.69.98,1.28,1.6,1.78.62.49,1.28.94,1.97,1.33.69.4,1.42.72,2.17.99,1.09.43,2.18.8,3.28,1.11,1.1.31,2.11.63,3.01.96.9.33,1.63.72,2.17,1.16.54.44.81,1.03.81,1.75,0,.89-.2,1.62-.59,2.2-.39.58-.97,1-1.73,1.26-.76.26-1.68.39-2.76.39-.86,0-1.67-.19-2.44-.57-.77-.38-1.55-1.04-2.34-2-.56-.66-1.14-1.17-1.73-1.53-.59-.36-1.19-.52-1.8-.47-.61.05-1.26.37-1.95.96-.69.66-1.18,1.27-1.46,1.83-.28.56-.35,1.11-.22,1.65.13.54.48,1.18,1.04,1.9.2.3.56.74,1.09,1.33.53.59,1.24,1.19,2.15,1.8.91.61,2.01,1.13,3.31,1.55,1.3.43,2.82.64,4.57.64,1.38,0,2.8-.21,4.25-.62,1.45-.41,2.8-1.06,4.05-1.95,1.25-.89,2.25-2.04,3.01-3.46.76-1.41,1.13-3.11,1.13-5.08,0-1.58-.22-2.91-.67-4s-1.03-1.99-1.75-2.72Z"/>
</svg>