<svg width="121" height="175" viewBox="0 0 121 175" fill="none" xmlns="http://www.w3.org/2000/svg">
<g clip-path="url(#clip0_6_121)">
<path d="M74.041 44.435C71.1307 42.8433 67.4471 43.7659 64.5719 45.4211C61.6967 47.0762 59.2222 49.4075 56.2346 50.8513C54.2662 51.8021 52.1081 52.3515 49.9289 52.4501C53.1977 54.3376 56.7688 55.704 60.4595 56.4858C63.5526 57.1337 66.7933 57.3732 69.8442 56.5703C75.3064 55.1406 81.3169 48.4214 74.034 44.435H74.041Z" fill="#30A4D5"/>
<path d="M64.7055 49.5839C64.7617 49.6121 64.832 49.6121 64.8883 49.5698C67.4049 47.8302 70.6667 47.2527 73.6263 48.0274C73.7247 48.0556 73.8231 47.9922 73.8442 47.9006C73.8653 47.802 73.8091 47.7105 73.7177 47.6823C70.6597 46.8864 67.2854 47.4851 64.6844 49.2811C64.6 49.3374 64.5789 49.4501 64.6352 49.5276C64.6492 49.5558 64.6774 49.5699 64.6985 49.5839H64.7055Z" fill="#26213F"/>
<path d="M55.616 103.048C53.9077 100.998 54.2944 97.8076 55.7777 95.5891C57.2609 93.3705 59.6019 91.9126 61.8725 90.518C64.7406 88.7502 67.6931 86.9542 71.0042 86.3133C72.3961 86.0457 74.0199 86.0527 75.0182 87.0599C75.8125 87.8557 75.9953 89.0601 76.0797 90.18C76.2554 92.4901 76.1851 94.8143 75.8547 97.1033C75.5946 98.9416 75.1447 100.822 74.0059 102.28C72.7546 103.879 70.8003 104.808 68.8109 105.196C66.8214 105.59 64.7687 105.499 62.7442 105.414C60.1642 105.302 57.268 105.041 55.6089 103.048H55.616Z" fill="#E59158"/>
<path d="M85.0075 93.5041C84.7544 91.0179 85.7878 88.5387 87.3203 86.5666C88.8458 84.5946 90.8493 83.0451 92.8176 81.5238C96.1638 78.939 100.726 76.3612 104.072 73.7764C101.134 80.1856 102.195 86.3413 101.886 94.6169C101.626 101.667 103.341 108.457 105.745 115.084C107.714 120.514 108.206 125.874 112.459 131.086C114.153 130.656 115.924 130.22 117.64 130.579C119.355 130.938 120.986 132.34 121 134.094C121.014 136.361 115.622 137.495 113.366 137.39C109.787 137.228 109.07 137.897 106.976 135.474C105 133.185 103.629 130.671 102.259 128.043C99.4748 122.719 96.698 117.394 93.9142 112.07C91.5944 107.626 89.2746 103.181 86.9477 98.7371C86.0831 97.082 85.2043 95.3705 85.0145 93.5111L85.0075 93.5041Z" fill="#E59158"/>
<path d="M52.8322 125.515C59.5316 127.705 65.8935 125.62 68.3891 125.409C69.7529 125.296 71.2221 125.268 72.375 126.015C74.027 127.085 74.4066 129.522 73.5349 131.276C72.6562 133.037 70.8073 134.15 68.8952 134.6C66.9831 135.051 64.9867 134.938 63.0324 134.819C56.7478 134.438 50.4702 134.058 44.1855 133.678C46.1539 131.255 48.9447 129.614 51.8761 128.557C54.8075 127.494 49.8797 124.543 52.8392 125.515H52.8322Z" fill="#E59158"/>
<path d="M105.042 56.8452C104.297 54.6126 104.67 47.3582 103.186 40.47C101.703 33.5889 101.886 26.7007 101.886 24.285C101.886 21.8692 101.703 8.46614 100.951 6.05036C100.206 3.63457 97.0564 -1.20404 94.8279 0.282055C92.5995 1.76815 87.2147 15.1641 87.2147 15.1641C87.2147 15.1641 78.8562 16.8404 75.8826 19.4463C70.1252 16.284 60.8389 12.9315 59.5384 14.981C58.2379 17.0306 68.2694 27.6304 70.308 31.3562C72.3537 35.075 76.8106 38.2373 76.8106 39.9136C76.8106 41.5899 73.5839 42.5548 71.4258 45.1255C68.4522 48.6611 67.953 49.8303 66.2589 51.1403C66.2589 51.1685 66.2589 51.1967 66.2589 51.2248C53.1975 51.1403 41.0641 59.7188 34.189 70.8892C27.1873 82.2638 24.8886 95.9415 24.3965 109.295C24.2418 113.458 24.2137 117.789 22.3438 121.508C19.9466 126.297 14.8219 129.248 9.58473 130.333C4.33348 131.425 -0.390533 135.538 -4.58029 138.89C-8.77004 142.243 -12.292 146.694 -13.5503 151.913C-14.8157 157.132 -13.473 163.154 -9.40975 166.654C-5.72614 169.824 3.43367 171.859 8.68492 172.747C25.5213 175.585 41.4297 176.648 57.2959 170.324C59.7844 169.331 60.9936 162.435 53.8232 163.576C39.3067 165.894 41.5281 166.964 21.8376 166.316C15.4195 166.105 2.75881 163.429 0.16482 162.886C-2.42917 162.337 -4.95989 160.794 -6.0003 158.35C-7.58903 154.611 -5.23405 150.349 -2.37996 147.469C5.88004 139.137 18.0978 136.453 29.5915 134.15C28.762 135.545 29.6688 137.454 31.0678 138.271C32.4667 139.088 34.1749 139.116 35.7918 139.116C46.4489 139.137 57.1061 139.158 67.7632 139.179C70.2448 139.179 72.4099 138.63 72.7544 136.172C73.1059 133.622 71.004 132.129 68.4803 131.699C61.8442 130.572 53.1132 131.812 46.4278 132.615C52.9374 130.896 61.4505 127.551 66.5682 123.17C70.2729 120.001 73.141 117.712 73.5066 108.718C76.213 118.395 80.6629 133.312 81.4432 135.552C82.7437 139.271 89.0565 138.531 92.2128 138.158C95.3692 137.785 96.1144 136.855 94.9966 133.509C93.8789 130.157 89.422 132.023 88.3113 130.72C87.1936 129.417 84.9651 116.395 84.9651 116.395C84.9651 116.395 82.9195 100.949 85.3377 96.3007C87.7489 91.6522 94.6241 86.9967 100.937 79.3691C107.25 71.7414 105.773 59.0849 105.028 56.8523L105.042 56.8452ZM63.9179 94.8709C66.0901 94.4061 67.9812 93.2721 69.5277 91.7227C69.3801 92.8284 74.322 110.485 74.7719 112.127C70.5259 101.921 73.9846 103.949 63.9179 94.8709Z" fill="#FEAA62"/>
<path d="M90.8914 16.2842C90.3431 14.3403 91.1796 12.2978 91.9951 10.4525C93.2183 7.69157 94.4415 4.92363 95.6717 2.16273C95.8685 1.72606 96.1497 1.21895 96.6277 1.18374C96.9862 1.15557 97.2956 1.41616 97.5557 1.66971C100.016 4.12071 101.049 7.69861 101.26 11.1638C101.471 14.6361 100.965 18.1013 100.796 21.5735C99.3553 20.3199 97.9072 19.0521 96.2762 18.059C94.6453 17.0659 92.8035 16.3475 90.8914 16.2912V16.2842Z" fill="#F07F60"/>
<path d="M73.4083 21.306C73.2607 20.982 72.9514 20.7566 72.6562 20.5524C69.0569 18.0873 64.9796 16.3336 60.7196 15.418C60.2416 15.7067 60.0869 16.3617 60.2205 16.9041C60.354 17.4464 60.7126 17.9042 61.057 18.3479C64.3891 22.5456 67.6861 27.3701 71.3064 31.3143C70.9479 26.6095 72.2695 24.6233 73.3802 22.6371C73.5982 22.2427 73.5841 21.7145 73.4013 21.306H73.4083Z" fill="#F07F60"/>
<path d="M85.3379 26.5533C85.3379 26.5533 85.5207 22.8134 87.9881 22.095C90.4556 21.3696 91.7209 23.4191 91.7209 23.9615C91.7209 24.5038 90.8774 26.9759 88.5294 27.2154C86.1815 27.4548 85.3379 26.5533 85.3379 26.5533Z" fill="#8ED4AC"/>
<path d="M87.2008 24.5174C87.004 23.9258 86.9196 23.2989 86.9337 22.6721C87.2289 22.4185 87.5734 22.2072 87.9881 22.0875C88.185 22.0312 88.3748 21.9889 88.5575 21.9678C89.2816 23.1933 88.902 25.5034 88.7895 25.8344C88.663 26.2007 88.0233 25.764 87.7561 25.4964C87.482 25.2287 87.3203 24.8766 87.2008 24.5103V24.5174Z" fill="#26213F"/>
<path d="M78.1183 29.2014C77.4153 28.5252 75.9531 26.7926 74.6878 27.511C73.4224 28.2365 72.8811 29.4408 72.9444 29.9198C73.0077 30.3987 74.027 32.0327 74.9338 31.913C75.8336 31.7932 77.4645 31.5538 78.1253 29.2014H78.1183Z" fill="#8ED4AC"/>
<path d="M74.3363 27.7436C74.4488 27.6591 74.5612 27.5816 74.6878 27.5112C75.0885 27.2858 75.5032 27.2999 75.911 27.4478C76.4171 28.2296 76.6772 29.1804 76.628 30.1101C76.621 30.2721 76.5999 30.4411 76.4944 30.5679C76.3468 30.751 76.0726 30.7792 75.8477 30.7369C75.2502 30.6172 74.8003 30.103 74.5823 29.5325C74.3714 28.962 74.3503 28.3422 74.3363 27.7365V27.7436Z" fill="#26213F"/>
<path d="M79.4821 38.8644C80.4522 39.0123 81.106 38.1108 81.7316 37.5333C81.9636 37.3149 82.2237 37.1529 82.4979 37.0332C82.1956 36.3571 81.8933 35.6739 81.591 34.9978C81.5348 34.878 82.1183 34.9344 82.1956 35.0964C82.4557 35.6809 82.7158 36.2726 82.9829 36.8571C83.0603 36.836 83.1376 36.8149 83.2219 36.8008C84.642 36.4979 86.2658 37.1882 87.496 36.1669C87.6648 36.026 88.2271 36.2655 88.0655 36.4064C86.8985 37.3783 85.373 37.0191 83.9741 37.0825C82.8634 37.1389 82.2307 37.8643 81.4715 38.5616C80.9372 39.0475 80.2835 39.3081 79.5664 39.1954C79.2712 39.1532 79.0603 38.7869 79.4821 38.8574V38.8644Z" fill="#26213F"/>
<path d="M78.4839 33.9837C78.1816 32.9977 79.3204 31.7933 80.3468 31.3003C81.3731 30.8073 82.6525 30.8918 83.6015 31.5257C84.1428 32.0821 84.0304 33.0259 83.6297 33.695C83.229 34.3641 82.7017 35.174 82.0972 35.4487C81.4926 35.7234 78.7932 34.9768 78.4839 33.9908V33.9837Z" fill="#26213F"/>
<path d="M81.2255 34.1031C82.1956 34.0397 83.7421 32.8001 83.9601 32.624C83.939 32.9973 83.8195 33.3776 83.6226 33.6946C83.2219 34.3637 82.6947 35.1736 82.0901 35.4483C81.4856 35.723 78.7861 34.9764 78.4768 33.9904C78.3925 33.7087 78.4206 33.4129 78.5331 33.1241C78.9478 33.9693 79.5594 34.2228 81.2255 34.1101V34.1031Z" fill="#26213F"/>
<path d="M82.765 31.7161C82.7158 31.8006 82.6104 31.8288 82.519 31.8499C81.5559 32.0964 80.0726 32.3429 79.6297 32.5965C79.1868 32.843 79.6297 32.1387 79.7563 31.9555C79.8828 31.7724 80.0656 31.6316 80.2624 31.5259C80.9091 31.1667 81.6894 31.0892 82.4065 31.2724C82.5119 31.3005 82.6244 31.3358 82.7088 31.4132C82.7861 31.4907 82.8283 31.6245 82.765 31.7161Z" fill="#26213F"/>
<path d="M83.6297 112.754C82.9759 112.754 82.3081 112.655 81.6894 112.458C81.5981 112.43 81.5418 112.324 81.5699 112.233C81.5981 112.141 81.7035 112.085 81.7949 112.113C82.5611 112.352 83.3907 112.444 84.185 112.366C84.2905 112.352 84.3678 112.43 84.3819 112.528C84.3889 112.627 84.3186 112.718 84.2202 112.726C84.0233 112.747 83.8265 112.754 83.6297 112.754Z" fill="#26213F"/>
<path d="M101.373 109.513C101.232 109.513 101.085 109.506 100.944 109.492C100.846 109.478 100.775 109.394 100.789 109.295C100.803 109.196 100.895 109.126 100.986 109.14C101.745 109.225 102.561 109.042 103.208 108.626C103.292 108.57 103.404 108.598 103.454 108.682C103.51 108.767 103.482 108.88 103.397 108.929C102.793 109.316 102.083 109.52 101.366 109.52L101.373 109.513Z" fill="#26213F"/>
<path d="M73.8301 128.889C73.8301 128.889 73.7739 128.889 73.7458 128.867C72.9936 128.466 72.0657 128.417 71.2713 128.734C71.1799 128.769 71.0745 128.727 71.0393 128.635C71.0042 128.543 71.0463 128.438 71.1377 128.403C72.0305 128.043 73.0639 128.1 73.9145 128.55C73.9989 128.6 74.034 128.705 73.9918 128.79C73.9567 128.853 73.9004 128.889 73.8301 128.889Z" fill="#26213F"/>
<path d="M73.6614 130.91C73.6614 130.91 73.6052 130.91 73.5771 130.889C72.8249 130.487 71.8969 130.438 71.1026 130.755C71.0112 130.79 70.9058 130.748 70.8706 130.656C70.8355 130.565 70.8776 130.459 70.969 130.424C71.8618 130.065 72.8952 130.121 73.7458 130.572C73.8301 130.621 73.8653 130.727 73.8231 130.811C73.788 130.875 73.7317 130.91 73.6614 130.91Z" fill="#26213F"/>
<path d="M72.607 135.207C72.607 135.207 72.5507 135.207 72.5226 135.186C71.7704 134.784 70.8425 134.735 70.0481 135.052C69.9567 135.087 69.8513 135.045 69.8161 134.953C69.781 134.862 69.8232 134.756 69.9146 134.721C70.8073 134.362 71.8407 134.418 72.6913 134.869C72.7757 134.918 72.8108 135.024 72.7686 135.108C72.7335 135.172 72.6773 135.207 72.607 135.207Z" fill="#26213F"/>
<path d="M72.4382 137.235C72.4382 137.235 72.382 137.235 72.3539 137.214C71.6017 136.813 70.6738 136.763 69.8794 137.08C69.788 137.115 69.6826 137.073 69.6474 136.982C69.6123 136.89 69.6545 136.784 69.7458 136.749C70.6386 136.39 71.672 136.446 72.5226 136.897C72.607 136.946 72.6421 137.052 72.5999 137.137C72.5648 137.2 72.5085 137.235 72.4382 137.235Z" fill="#26213F"/>
<path d="M64.593 95.4132C64.593 95.4132 64.5368 95.4132 64.5157 95.3921C62.8356 94.568 60.9586 94.1666 59.0887 94.2088C58.9762 94.2088 58.9059 94.1313 58.9059 94.0327C58.9059 93.9341 58.9832 93.8496 59.0817 93.8496C61.0078 93.8003 62.948 94.2159 64.6774 95.0681C64.7687 95.1103 64.8039 95.216 64.7617 95.3076C64.7336 95.3709 64.6633 95.4062 64.6 95.4062L64.593 95.4132Z" fill="#26213F"/>
<path d="M94.8633 133.672C94.8633 133.672 94.807 133.672 94.7789 133.651C94.0267 133.249 93.0988 133.2 92.3044 133.517C92.213 133.552 92.1076 133.51 92.0724 133.418C92.0373 133.327 92.0795 133.221 92.1709 133.186C93.0636 132.827 94.097 132.883 94.9476 133.334C95.032 133.383 95.0671 133.489 95.0249 133.573C94.9898 133.637 94.9336 133.672 94.8633 133.672Z" fill="#26213F"/>
<path d="M95.278 135.39C95.278 135.39 95.2218 135.39 95.1937 135.368C94.4415 134.967 93.5135 134.918 92.7192 135.235C92.6278 135.27 92.5223 135.228 92.4872 135.136C92.452 135.044 92.4942 134.939 92.5856 134.904C93.4784 134.544 94.5118 134.601 95.3624 135.051C95.4467 135.101 95.4819 135.206 95.4397 135.291C95.4046 135.354 95.3483 135.39 95.278 135.39Z" fill="#26213F"/>
<path d="M119.707 131.96C119.707 131.96 119.65 131.96 119.622 131.939C118.87 131.537 117.942 131.488 117.148 131.805C117.056 131.84 116.951 131.798 116.916 131.706C116.881 131.615 116.923 131.509 117.014 131.474C117.907 131.115 118.94 131.171 119.791 131.622C119.875 131.671 119.91 131.777 119.868 131.861C119.833 131.925 119.777 131.96 119.707 131.96Z" fill="#26213F"/>
<path d="M120.48 133.312C120.48 133.312 120.424 133.312 120.395 133.291C119.643 132.89 118.715 132.84 117.921 133.157C117.83 133.193 117.724 133.15 117.689 133.059C117.654 132.967 117.696 132.862 117.787 132.826C118.68 132.467 119.714 132.524 120.564 132.974C120.649 133.024 120.684 133.129 120.641 133.214C120.606 133.277 120.55 133.312 120.48 133.312Z" fill="#26213F"/>
<path d="M91.264 53.9216C95.6084 56.274 100.41 58.0629 105.352 57.9502C107.475 60.8027 107.271 68.4585 107.292 69.7967C107.376 75.2904 105.788 79.5444 105.633 85.038C105.612 85.9536 105.387 87.1157 104.487 87.2918C104.1 87.3693 103.707 87.2214 103.355 87.0523C102.167 86.4959 101.092 85.7282 100.044 84.9394C87.3062 75.3467 77.3661 62.0775 71.7142 47.1532C71.44 46.4277 71.1659 45.6459 71.3205 44.8853C71.4752 44.0894 72.136 43.5893 72.9163 43.5471C72.7546 42.1385 73.8583 41.406 75.8547 42.1525C77.3169 42.6949 77.5419 43.4626 78.6596 44.5683C82.3854 48.266 86.6384 51.4354 91.257 53.9357L91.264 53.9216Z" fill="#30A4D5"/>
<path d="M98.2657 73.1777C98.2657 73.1777 98.329 73.1354 98.35 73.1002C98.3992 73.0157 98.3641 72.903 98.2797 72.8537C87.6507 67.1488 80.8529 56.4151 74.8635 46.9351C74.8073 46.8506 74.7018 46.8294 74.6175 46.8787C74.5331 46.9351 74.512 47.0407 74.5612 47.1252C80.5787 56.6405 87.4047 67.4235 98.111 73.1636C98.1602 73.1918 98.2235 73.1918 98.2727 73.1636L98.2657 73.1777Z" fill="#26213F"/>
<path d="M99.5451 65.5082C99.5873 65.4871 99.6295 65.4448 99.6435 65.3955C99.6716 65.2969 99.6154 65.1983 99.517 65.1772C95.9599 64.2123 92.8879 61.7824 90.1814 59.6413C86.6525 56.8523 83.004 53.9646 79.9461 50.5487C79.8828 50.4782 79.7703 50.4642 79.693 50.5346C79.6227 50.598 79.6157 50.7107 79.6789 50.7881C82.7509 54.2252 86.4135 57.1269 89.9565 59.923C92.6911 62.0853 95.7912 64.5363 99.4186 65.5223C99.4607 65.5364 99.5029 65.5223 99.5451 65.5082Z" fill="#26213F"/>
<path d="M84.41 42.5474C83.1938 42.5474 81.9566 42.4206 80.7334 42.16C80.635 42.1389 80.5717 42.0474 80.5928 41.9487C80.6139 41.8501 80.7053 41.7938 80.8037 41.8079C83.1727 42.3079 85.605 42.315 87.8264 41.822C90.6805 41.1951 94.3642 39.1033 95.3061 37.0045C95.3483 36.9129 95.4538 36.8707 95.5452 36.9129C95.6365 36.9552 95.6787 37.0608 95.6365 37.1524C94.6524 39.3498 90.8493 41.5262 87.9108 42.1741C86.786 42.4206 85.6121 42.5474 84.417 42.5474H84.41Z" fill="#26213F"/>
<path d="M91.9108 34.5393C91.8545 34.5393 91.7913 34.5111 91.7561 34.4548C91.2921 33.7152 90.3642 33.2927 89.5066 33.4194C89.4082 33.4335 89.3168 33.3631 89.3027 33.2645C89.2886 33.1659 89.3589 33.0743 89.4574 33.0602C90.4486 32.9123 91.5241 33.4053 92.0584 34.2576C92.1146 34.3421 92.0865 34.4548 92.0021 34.5041C91.974 34.5252 91.9389 34.5322 91.9037 34.5322L91.9108 34.5393Z" fill="#26213F"/>
<path d="M79.932 40.3217C79.9531 40.2654 79.9461 40.202 79.9039 40.1527C79.3626 39.4695 79.2712 38.4553 79.6719 37.6806C79.7211 37.596 79.686 37.4833 79.5946 37.4411C79.5032 37.3988 79.3977 37.427 79.3556 37.5186C78.8846 38.406 78.997 39.5892 79.6227 40.3781C79.686 40.4555 79.7984 40.4696 79.8758 40.4062C79.9039 40.3851 79.925 40.3569 79.932 40.3217Z" fill="#26213F"/>
<path d="M87.5031 36.73C87.4047 36.73 87.3062 36.6737 87.2641 36.5821C87.2008 36.4483 87.1516 36.4342 87.2641 36.3356C87.8616 35.8426 88.7966 35.3918 89.4292 34.8495C89.7948 34.5396 89.9494 34.3706 90.1603 34.1452C90.2939 34.0043 90.4556 33.8353 90.6946 33.5958C90.8 33.4902 90.9688 33.4902 91.0742 33.5958C91.1797 33.7015 91.1797 33.8705 91.0742 33.9762C90.8352 34.2086 90.6805 34.3706 90.554 34.5114C90.3361 34.7439 90.1674 34.9199 89.7807 35.251C89.1129 35.8215 88.3677 36.3215 87.6226 36.6948C87.5874 36.7159 87.5453 36.723 87.5031 36.723V36.73Z" fill="#26213F"/>
<path d="M91.7139 29.673C91.6507 29.673 91.5874 29.6377 91.5593 29.5814C91.5101 29.4969 91.5452 29.3842 91.6296 29.3349C92.9512 28.6165 94.3431 27.8136 96.8597 25.8908C96.937 25.8274 97.0495 25.8486 97.1128 25.926C97.1761 26.0035 97.155 26.1162 97.0776 26.1796C94.5399 28.1164 93.1339 28.9264 91.7983 29.6518C91.7702 29.6659 91.742 29.673 91.7139 29.673Z" fill="#26213F"/>
<path d="M92.0865 30.6799C91.9951 30.6799 91.9178 30.6165 91.9108 30.5249C91.8967 30.4263 91.967 30.3347 92.0654 30.3207C93.5557 30.1305 95.1445 29.884 98.1813 28.9965C98.2727 28.9684 98.3782 29.0247 98.4063 29.1163C98.4344 29.2149 98.3782 29.3135 98.2868 29.3417C95.2218 30.2291 93.619 30.4826 92.1146 30.6728C92.1076 30.6728 92.1006 30.6728 92.0935 30.6728L92.0865 30.6799Z" fill="#26213F"/>
<path d="M70.9409 40.4906C70.8847 40.4906 70.8354 40.4695 70.8003 40.4202C70.737 40.3427 70.7581 40.23 70.8355 40.1667C73.3802 38.2298 74.7792 37.4198 76.1148 36.6944C76.1992 36.6451 76.3116 36.6803 76.3609 36.7648C76.4101 36.8494 76.3749 36.962 76.2906 37.0113C74.976 37.7297 73.5771 38.5327 71.0604 40.4554C71.0253 40.4836 70.9901 40.4906 70.955 40.4906H70.9409Z" fill="#26213F"/>
<path d="M69.6755 37.357C69.5982 37.357 69.5279 37.3077 69.4998 37.2302C69.4717 37.1316 69.5279 37.033 69.6193 37.0048C72.6843 36.1174 74.2871 35.8638 75.7915 35.6737C75.8899 35.6596 75.9813 35.73 75.9953 35.8286C76.0094 35.9272 75.9391 36.0188 75.8407 36.0329C74.3503 36.223 72.7616 36.4695 69.7247 37.357C69.7107 37.357 69.6896 37.357 69.6755 37.357Z" fill="#26213F"/>
</g>
<defs>
<clipPath id="clip0_6_121">
<rect width="135" height="175" fill="white" transform="translate(-14)"/>
</clipPath>
</defs>
</svg>
