<svg width="74" height="51" viewBox="0 0 74 51" fill="none" xmlns="http://www.w3.org/2000/svg">
<ellipse cx="38.3011" cy="35.7108" rx="11.7849" ry="8.83871" fill="#26213F"/>
<path d="M53.3028 0.966705C53.3028 0.966705 47.4947 5.99216 45.1344 8.17123C42.6546 7.32679 36.2945 5.62143 28.8264 8.17123C26.466 5.99628 20.6579 0.966705 20.6579 0.966705C19.4798 -0.161963 17.6715 0.344702 17.3625 1.89353C15.1505 12.9083 12.8026 28.1001 14.7345 34.4972C20.9957 55.2458 52.8909 55.4229 59.2427 34.5137C61.047 28.5779 59.3169 15.4334 56.5982 1.89353C56.2892 0.344702 54.4809 -0.161963 53.3028 0.966705ZM22.7546 24.0509C21.8731 25.3196 19.9288 23.9891 20.8186 22.708C25.0573 16.5992 31.9199 18.5393 33.6953 24.1044C34.1731 25.5997 31.9199 26.2958 31.4503 24.8212C30.2804 21.1633 25.9058 19.5156 22.7587 24.055L22.7546 24.0509ZM42.7864 38.9583C40.113 41.1457 37.6333 39.6545 36.2492 37.4672C35.3471 38.8966 32.8508 41.5246 29.712 38.9583C28.5174 37.978 30.0127 36.1573 31.2031 37.1335C33.8353 39.2879 35.1205 34.0647 35.1741 33.9535C34.8322 33.764 34.5356 33.4798 34.3173 33.1008L33.4069 31.519C32.6614 30.2297 33.5923 28.6191 35.0793 28.6191L36.2492 29.0763L37.2955 28.6191C38.8814 28.6191 39.87 30.3327 39.0791 31.7044L38.2759 33.0967C38.0411 33.5004 37.7156 33.7928 37.3449 33.9823C37.3779 34.0688 38.6754 39.2714 41.2953 37.1294C42.4939 36.149 43.9851 37.9739 42.7864 38.9542V38.9583ZM51.2226 24.0509C47.7995 19.1119 43.4908 21.6617 42.531 24.817C42.1562 26.0528 39.7299 25.8345 40.286 24.1003C41.8555 19.1737 48.5657 16.0802 53.1627 22.7039C54.0566 23.9891 52.0959 25.3031 51.2267 24.0467L51.2226 24.0509Z" fill="#26213F"/>
<path d="M36.83 36.5028C27.4464 36.5028 18.5983 35.5431 11.9128 33.7965C4.00801 31.7369 0 28.7999 0 25.072C0 20.9898 5.59803 17.8716 14.9899 15.8037L14.4544 20.6314C6.25711 22.4357 5.02546 24.5983 4.93895 25.0802C5.0131 25.4798 6.71434 27.4117 13.6676 29.1459C19.9 30.703 28.1261 31.5598 36.8259 31.5598C45.5257 31.5598 53.7518 30.703 59.9842 29.1459C66.9374 27.4076 68.6387 25.4798 68.7128 25.0596C68.6346 24.6353 66.8262 22.6169 59.4075 20.8539L58.9956 16.0467C67.6913 18.1146 73.6559 21.1546 73.6559 25.072C73.6559 28.9894 69.6479 31.741 61.7431 33.8006C55.0576 35.5431 46.2054 36.507 36.8259 36.507L36.83 36.5028Z" fill="#C6C3D2"/>
</svg>
