<svg width="85" height="75" viewBox="0 0 85 75" fill="none" xmlns="http://www.w3.org/2000/svg">
<g clip-path="url(#clip0_6_107)">
<path d="M66.1633 3.3353C66.1633 3.3353 57.7202 10.6408 54.288 13.8145C50.6829 12.588 41.4367 10.1044 30.5729 13.8161C27.1407 10.6441 18.6943 3.3353 18.6943 3.3353C16.9815 1.69515 14.354 2.43363 13.9031 4.68297C10.6891 20.7015 7.27306 42.7862 10.0799 52.0874C19.1856 82.2564 65.5606 82.5134 74.7988 52.1132C77.4214 43.4794 74.907 24.3696 70.9561 4.68297C70.5053 2.43201 67.8778 1.69515 66.165 3.3353H66.1633ZM21.7419 36.8994C20.4605 38.7464 17.6327 36.8089 18.9254 34.9458C25.0869 26.0647 35.07 28.8861 37.649 36.9737C38.3422 39.1471 35.0684 40.1603 34.3832 38.016C32.6849 32.6964 26.3214 30.2984 21.7435 36.8994H21.7419ZM50.8687 58.5736C46.9825 61.7521 43.3725 59.5868 41.3639 56.4067C40.0518 58.4831 36.4241 62.308 31.8592 58.5736C30.1204 57.1516 32.2955 54.5031 34.0293 55.9203C37.8574 59.0519 39.7286 51.4604 39.8014 51.2956C39.3069 51.0192 38.8706 50.6072 38.5539 50.0578L37.2272 47.7599C36.1462 45.8871 37.4971 43.544 39.6608 43.544L41.3639 44.2114L42.8861 43.544C45.1888 43.544 46.6286 46.0374 45.4764 48.0314L44.3065 50.0578C43.9672 50.646 43.4905 51.0726 42.9524 51.3489C43.0025 51.4749 44.8899 59.0374 48.6986 55.9219C50.4438 54.4951 52.6123 57.15 50.8687 58.5752V58.5736ZM63.1351 36.8994C58.1565 29.7167 51.8916 33.4236 50.4955 38.016C49.9493 39.8129 46.425 39.4978 47.2297 36.9737C49.5146 29.8104 59.2699 25.3117 65.9533 34.9458C67.2509 36.8154 64.4004 38.7222 63.1367 36.8994H63.1351Z" fill="white"/>
<path d="M76.1529 21.4023H74.0361C72.5915 21.4023 71.4038 22.5836 71.4038 24.0314L71.3908 45.0819C71.3908 46.4263 72.417 47.5333 73.7226 47.6851C72.8225 51.4777 70.2565 58.0124 62.9913 62.44C59.7934 64.3888 55.1865 65.2727 51.158 65.6605C50.4826 64.4567 49.1963 63.6439 47.7177 63.6439H39.824C37.6441 63.6439 35.8763 65.4117 35.8763 67.5916C35.8763 69.7714 37.6441 71.5392 39.824 71.5392H47.7177C49.4225 71.5392 50.8704 70.4566 51.423 68.9425C55.8377 68.5159 60.9828 67.5156 64.7026 65.2485C73.4027 59.9467 76.1901 51.9705 77.0788 47.7175H77.966C81.5856 47.7207 84.5492 44.1689 84.5492 39.8254L84.5573 29.3025C84.5557 24.9638 81.5986 21.4088 77.9821 21.4056H77.6218" fill="#26213F"/>
<path d="M7.28924 21.404H6.92889C3.31248 21.4072 0.35536 24.9622 0.353745 29.3009L0.36344 39.8237C0.36344 44.1689 3.32702 47.7191 6.94666 47.7158H10.8943C12.339 47.7158 13.5234 46.5265 13.5218 45.0819L13.5089 24.0314C13.5089 22.5836 12.3228 21.4023 10.8766 21.4023H8.6967" fill="#26213F"/>
<path d="M9.99265 24.1388L7.64958 21.912C7.82087 21.731 8.27494 20.9829 8.67569 20.322C11.9124 14.983 20.509 0.801758 42.4466 0.801758C51.9207 0.801758 59.9728 3.37429 66.3799 8.44664C71.6429 12.6141 74.5887 17.5523 76.1723 20.204C76.5925 20.9085 77.0692 21.7068 77.2647 21.912L74.9216 24.1371C74.4772 23.6701 74.0474 22.9494 73.3978 21.8587C70.2145 16.5246 62.7619 4.03197 42.4482 4.03197C22.1346 4.03197 14.6982 16.6215 11.4389 21.9977C10.8152 23.0254 10.4031 23.7057 9.99104 24.1388H9.99265Z" fill="#26213F"/>
</g>
<defs>
<clipPath id="clip0_6_107">
<rect width="84.2052" height="74.0136" fill="white" transform="translate(0.353729 0.801758)"/>
</clipPath>
</defs>
</svg>
