<svg width="55" height="54" viewBox="0 0 55 54" fill="none" xmlns="http://www.w3.org/2000/svg">
<circle cx="27.5" cy="26.9992" r="26.7814" fill="#FEAA62"/>
<rect x="13.5802" y="11.3555" width="28.4416" height="29.495" fill="white"/>
<path d="M34.8294 8.66016L14.8766 10.6859C12.2836 10.6859 8.29295 18.6275 8.29295 21.2205L10.3187 38.54C10.3187 41.133 14.8158 45.6301 17.4088 45.6301L38.1806 44.6173C40.7736 44.6173 44.2501 38.0944 44.2501 35.5014L45.2629 13.6944C45.2629 11.1014 37.4225 8.66016 34.8294 8.66016ZM38.8296 24.3741C38.6139 24.3951 38.3973 24.4061 38.1806 24.4071C37.0105 24.4072 35.8588 24.116 34.8294 23.5597C33.8 23.0034 32.9254 22.1995 32.2844 21.2205V32.0714C32.2844 33.6576 31.8141 35.2082 30.9328 36.527C30.0516 37.8459 28.7991 38.8738 27.3336 39.4808C25.8682 40.0878 24.2557 40.2466 22.7 39.9372C21.1443 39.6277 19.7152 38.8639 18.5936 37.7423C17.472 36.6207 16.7082 35.1917 16.3988 33.636C16.0893 32.0803 16.2481 30.4678 16.8552 29.0023C17.4622 27.5369 18.4901 26.2844 19.8089 25.4031C21.1278 24.5219 22.6784 24.0515 24.2646 24.0515C24.432 24.0515 24.5956 24.0666 24.7602 24.0769V28.029C24.5956 28.0093 24.4339 27.9792 24.2646 27.9792C23.179 27.9792 22.1379 28.4104 21.3702 29.178C20.6026 29.9457 20.1714 30.9868 20.1714 32.0724C20.1714 33.1579 20.6026 34.199 21.3702 34.9667C22.1379 35.7343 23.179 36.1655 24.2646 36.1655C26.5256 36.1655 28.5223 34.3842 28.5223 32.1231L28.5618 13.6944H32.3427C32.5155 15.3373 33.2602 16.8671 34.4467 18.0164C35.6331 19.1657 37.1859 19.8614 38.8333 19.9819V24.3741" fill="#FEAA62"/>
</svg>
